<svg xmlns="http://www.w3.org/2000/svg" viewBox="0 0 245.08 111.82"><defs><style>.cls-1{stroke:#bee81e;stroke-miterlimit:10;stroke-width:5px;}</style></defs><g id="Layer_2" data-name="Layer 2"><g id="FOREGROUND"><path class="cls-1" d="M166.53,34.46,137,30.73,124.37,3.67a2,2,0,0,0-3.66,0L108.05,30.73l-29.5,3.73A2,2,0,0,0,77.42,38L99.18,58.62,93.55,87.76a2,2,0,0,0,3,2.17h52.06a2,2,0,0,0,3-2.17L145.9,58.62,167.66,38A2,2,0,0,0,166.53,34.46Z"/><path class="cls-1" d="M241.33,70l-20.8-2.63-8.92-19.08a1.42,1.42,0,0,0-2.58,0L200.1,67.4,179.31,70a1.44,1.44,0,0,0-.8,2.47l15.34,14.56-4,20.54a1.43,1.43,0,0,0,2.09,1.53L210.32,99l18.35,10.15a1.43,1.43,0,0,0,2.09-1.53l-4-20.54L242.13,72.5A1.44,1.44,0,0,0,241.33,70Z"/><path class="cls-1" d="M65.77,70,45,67.4,36.05,48.32a1.42,1.42,0,0,0-2.58,0L24.55,67.4,3.75,70A1.44,1.44,0,0,0,3,72.5L18.29,87.06l-4,20.54a1.43,1.43,0,0,0,2.09,1.53L34.76,99l18.35,10.15a1.43,1.43,0,0,0,2.09-1.53l-4-20.54L66.57,72.5A1.44,1.44,0,0,0,65.77,70Z"/></g></g></svg>